G75*
%MOIN*%
%OFA0B0*%
%FSLAX25Y25*%
%IPPOS*%
%LPD*%
%AMOC8*
5,1,8,0,0,1.08239X$1,22.5*
%
%ADD10C,0.00600*%
%ADD11C,0.05200*%
%ADD12OC8,0.05200*%
%ADD13C,0.05000*%
%ADD14OC8,0.07874*%
%ADD15C,0.27000*%
%ADD16C,0.04000*%
%ADD17OC8,0.05906*%
D10*
X0054972Y0016814D02*
X0057108Y0016814D01*
X0056040Y0016814D02*
X0056040Y0023220D01*
X0057108Y0023220D01*
X0059283Y0020017D02*
X0059283Y0016814D01*
X0062485Y0016814D01*
X0063553Y0017882D01*
X0062485Y0018949D01*
X0059283Y0018949D01*
X0059283Y0020017D02*
X0060350Y0021084D01*
X0062485Y0021084D01*
X0065715Y0021084D02*
X0065715Y0015747D01*
X0066782Y0014679D01*
X0067850Y0014679D01*
X0070025Y0016814D02*
X0073228Y0016814D01*
X0074296Y0017882D01*
X0073228Y0018949D01*
X0070025Y0018949D01*
X0070025Y0020017D02*
X0070025Y0016814D01*
X0070025Y0020017D02*
X0071093Y0021084D01*
X0073228Y0021084D01*
X0076471Y0021084D02*
X0078606Y0016814D01*
X0080741Y0021084D01*
X0082910Y0021084D02*
X0083977Y0021084D01*
X0086112Y0018949D01*
X0086112Y0016814D02*
X0086112Y0021084D01*
X0088287Y0020017D02*
X0088287Y0016814D01*
X0091490Y0016814D01*
X0092558Y0017882D01*
X0091490Y0018949D01*
X0088287Y0018949D01*
X0088287Y0020017D02*
X0089355Y0021084D01*
X0091490Y0021084D01*
X0094733Y0022152D02*
X0095801Y0023220D01*
X0097936Y0023220D01*
X0099003Y0022152D01*
X0099003Y0017882D01*
X0097936Y0016814D01*
X0095801Y0016814D01*
X0094733Y0017882D01*
X0107617Y0021084D02*
X0108685Y0021084D01*
X0110820Y0018949D01*
X0110820Y0016814D02*
X0110820Y0021084D01*
X0112995Y0020017D02*
X0112995Y0016814D01*
X0116198Y0016814D01*
X0117266Y0017882D01*
X0116198Y0018949D01*
X0112995Y0018949D01*
X0112995Y0020017D02*
X0114063Y0021084D01*
X0116198Y0021084D01*
X0119441Y0021084D02*
X0122643Y0021084D01*
X0123711Y0020017D01*
X0123711Y0017882D01*
X0122643Y0016814D01*
X0119441Y0016814D01*
X0125886Y0017882D02*
X0126954Y0018949D01*
X0129089Y0018949D01*
X0130157Y0020017D01*
X0129089Y0021084D01*
X0125886Y0021084D01*
X0125886Y0017882D02*
X0126954Y0016814D01*
X0130157Y0016814D01*
X0132332Y0017882D02*
X0132332Y0022152D01*
X0133399Y0023220D01*
X0135534Y0023220D01*
X0136602Y0022152D01*
X0136602Y0017882D01*
X0135534Y0016814D01*
X0133399Y0016814D01*
X0132332Y0017882D01*
X0145203Y0017882D02*
X0145203Y0016814D01*
X0146270Y0016814D01*
X0146270Y0017882D01*
X0145203Y0017882D01*
X0148445Y0016814D02*
X0151648Y0016814D01*
X0152716Y0017882D01*
X0152716Y0020017D01*
X0151648Y0021084D01*
X0148445Y0021084D01*
X0148445Y0015747D01*
X0149513Y0014679D01*
X0150581Y0014679D01*
X0154891Y0016814D02*
X0154891Y0020017D01*
X0155959Y0021084D01*
X0159161Y0021084D01*
X0159161Y0016814D01*
X0161323Y0016814D02*
X0163458Y0016814D01*
X0162391Y0016814D02*
X0162391Y0023220D01*
X0163458Y0023220D02*
X0161323Y0023220D01*
X0065715Y0023220D02*
X0065715Y0024287D01*
D11*
X0109583Y0151632D02*
X0114783Y0151632D01*
X0114783Y0161632D02*
X0109583Y0161632D01*
X0109583Y0171632D02*
X0114783Y0171632D01*
X0114783Y0181632D02*
X0109583Y0181632D01*
X0109583Y0191632D02*
X0114783Y0191632D01*
X0114783Y0201632D02*
X0109583Y0201632D01*
X0109583Y0211632D02*
X0114783Y0211632D01*
X0139583Y0211632D02*
X0144783Y0211632D01*
X0144783Y0201632D02*
X0139583Y0201632D01*
X0139583Y0191632D02*
X0144783Y0191632D01*
X0144783Y0181632D02*
X0139583Y0181632D01*
X0139583Y0171632D02*
X0144783Y0171632D01*
X0144783Y0161632D02*
X0139583Y0161632D01*
X0139583Y0151632D02*
X0144783Y0151632D01*
D12*
X0168050Y0161199D03*
X0167459Y0182577D03*
X0167813Y0206002D03*
X0207813Y0206002D03*
X0207459Y0182577D03*
X0208050Y0161199D03*
X0171554Y0084743D03*
X0146790Y0083443D03*
X0132774Y0084231D03*
X0115884Y0085294D03*
X0081435Y0083680D03*
X0115884Y0045294D03*
X0132774Y0044231D03*
X0146790Y0043443D03*
X0171554Y0044743D03*
X0081435Y0043680D03*
X0039231Y0043286D03*
X0039231Y0083286D03*
X0035806Y0169034D03*
X0035372Y0190136D03*
X0035569Y0211278D03*
X0075569Y0211278D03*
X0075372Y0190136D03*
X0075806Y0169034D03*
D13*
X0073128Y0115806D03*
X0083128Y0115806D03*
X0083128Y0105806D03*
X0073128Y0105806D03*
X0049388Y0105254D03*
X0039388Y0105254D03*
X0039388Y0115254D03*
X0049388Y0115254D03*
X0106396Y0115766D03*
X0106396Y0105766D03*
X0116396Y0105766D03*
X0116396Y0115766D03*
X0139585Y0115924D03*
X0149585Y0115924D03*
X0149585Y0105924D03*
X0139585Y0105924D03*
X0173758Y0105569D03*
X0173758Y0115569D03*
X0183758Y0115569D03*
X0183758Y0105569D03*
X0204900Y0105333D03*
X0204900Y0115333D03*
X0214900Y0115333D03*
X0214900Y0105333D03*
D14*
X0199900Y0070609D03*
X0199900Y0050924D03*
D15*
X0014900Y0014900D03*
X0015294Y0224152D03*
X0223443Y0224152D03*
X0223404Y0014900D03*
D16*
X0192735Y0043758D02*
X0171711Y0043758D01*
X0171711Y0043916D01*
X0170648Y0042853D01*
X0146475Y0042853D01*
X0144861Y0044467D01*
X0103640Y0044467D01*
X0102931Y0045215D02*
X0101829Y0044113D01*
X0083680Y0044113D01*
X0083876Y0043916D02*
X0082459Y0042498D01*
X0059034Y0042498D01*
X0059939Y0042498D02*
X0038168Y0042498D01*
X0038680Y0044664D02*
X0031632Y0051711D01*
X0031632Y0103286D01*
X0031435Y0103758D02*
X0031435Y0163050D01*
X0035806Y0167420D01*
X0036160Y0168483D02*
X0036160Y0190687D01*
X0035412Y0190687D01*
X0035412Y0188483D01*
X0035412Y0190687D02*
X0035412Y0211042D01*
X0034349Y0211042D01*
X0034703Y0210687D02*
X0051396Y0220136D01*
X0162813Y0220136D01*
X0161002Y0219428D02*
X0195806Y0219428D01*
X0208916Y0206317D01*
X0208522Y0207065D02*
X0208522Y0181947D01*
X0207813Y0181239D01*
X0208168Y0183050D02*
X0208168Y0160136D01*
X0181790Y0137105D02*
X0181790Y0199309D01*
X0175097Y0206002D01*
X0167813Y0206002D01*
X0163010Y0201199D01*
X0144152Y0201199D01*
X0143050Y0201632D02*
X0142302Y0201632D01*
X0141908Y0211435D02*
X0141593Y0211435D01*
X0141908Y0211435D02*
X0142302Y0211829D01*
X0144309Y0211396D02*
X0152971Y0211396D01*
X0161002Y0219428D01*
X0167459Y0182577D02*
X0166514Y0181632D01*
X0142183Y0181632D01*
X0136672Y0181632D01*
X0129113Y0174073D01*
X0129113Y0129506D01*
X0139585Y0115924D01*
X0139782Y0106002D02*
X0116199Y0115491D01*
X0116672Y0115687D02*
X0106278Y0105766D01*
X0107302Y0104861D02*
X0096435Y0104861D01*
X0084782Y0116514D01*
X0083325Y0115766D02*
X0073168Y0105963D01*
X0073168Y0105215D02*
X0067026Y0105215D01*
X0059743Y0112498D01*
X0053207Y0112498D01*
X0049939Y0115766D01*
X0049231Y0114703D02*
X0039782Y0106317D01*
X0039388Y0115254D02*
X0051593Y0127459D01*
X0051593Y0195924D01*
X0066947Y0211278D01*
X0075569Y0211278D01*
X0111829Y0211278D01*
X0112183Y0211632D01*
X0112183Y0191632D02*
X0076869Y0191632D01*
X0075372Y0190136D01*
X0066120Y0190136D01*
X0062105Y0186120D01*
X0062105Y0126829D01*
X0073128Y0115806D01*
X0083128Y0105806D02*
X0083128Y0083680D01*
X0081435Y0083680D01*
X0083561Y0105372D02*
X0083128Y0105806D01*
X0058286Y0110333D02*
X0058286Y0092853D01*
X0058286Y0091042D02*
X0058286Y0062302D01*
X0124309Y0062302D01*
X0131947Y0069939D01*
X0131987Y0070412D02*
X0201278Y0070412D01*
X0199821Y0050845D02*
X0192735Y0043758D01*
X0171554Y0084743D02*
X0175333Y0088522D01*
X0213994Y0088522D01*
X0213798Y0088719D01*
X0214900Y0105333D01*
X0214703Y0115057D02*
X0213994Y0115057D01*
X0204546Y0105609D01*
X0203443Y0104861D02*
X0196199Y0104861D01*
X0185294Y0115766D01*
X0184939Y0115766D02*
X0173325Y0105215D01*
X0173916Y0105569D02*
X0149703Y0115687D01*
X0149703Y0116042D02*
X0139782Y0105884D01*
X0149585Y0105924D02*
X0149743Y0106750D01*
X0149743Y0100136D01*
X0133837Y0084231D01*
X0132774Y0084231D01*
X0146790Y0083443D02*
X0159113Y0095766D01*
X0182026Y0095766D01*
X0184191Y0097931D01*
X0183758Y0105569D01*
X0173325Y0104152D02*
X0172577Y0103404D01*
X0173758Y0115569D02*
X0165609Y0124270D01*
X0165609Y0160845D01*
X0139664Y0160845D01*
X0140451Y0161632D01*
X0142183Y0161632D01*
X0165609Y0160845D02*
X0167695Y0160845D01*
X0168050Y0161199D01*
X0181790Y0137105D02*
X0204900Y0115333D01*
X0118168Y0114703D02*
X0118168Y0144152D01*
X0111278Y0151042D01*
X0112183Y0171632D02*
X0078404Y0171632D01*
X0075806Y0169034D01*
X0075806Y0146475D01*
X0106396Y0115766D01*
X0116396Y0105766D02*
X0116396Y0085294D01*
X0117459Y0085294D01*
X0116396Y0085294D02*
X0115884Y0085294D01*
X0117459Y0103404D02*
X0116396Y0105766D01*
X0082617Y0044113D02*
X0082813Y0043916D01*
X0083876Y0043916D01*
X0061002Y0043561D02*
X0059939Y0042498D01*
X0039231Y0083286D02*
X0049388Y0093443D01*
X0049388Y0105254D01*
D17*
X0094585Y0161239D03*
X0092420Y0181593D03*
X0092420Y0201239D03*
X0153365Y0152498D03*
X0159191Y0172144D03*
X0161357Y0192498D03*
M02*
