G75*
%MOIN*%
%OFA0B0*%
%FSLAX25Y25*%
%IPPOS*%
%LPD*%
%AMOC8*
5,1,8,0,0,1.08239X$1,22.5*
%
%ADD10C,0.06000*%
%ADD11OC8,0.06000*%
%ADD12C,0.05800*%
%ADD13OC8,0.08674*%
%ADD14C,0.27800*%
%ADD15OC8,0.06706*%
D10*
X0109583Y0151632D02*
X0114783Y0151632D01*
X0114783Y0161632D02*
X0109583Y0161632D01*
X0109583Y0171632D02*
X0114783Y0171632D01*
X0114783Y0181632D02*
X0109583Y0181632D01*
X0109583Y0191632D02*
X0114783Y0191632D01*
X0114783Y0201632D02*
X0109583Y0201632D01*
X0109583Y0211632D02*
X0114783Y0211632D01*
X0139583Y0211632D02*
X0144783Y0211632D01*
X0144783Y0201632D02*
X0139583Y0201632D01*
X0139583Y0191632D02*
X0144783Y0191632D01*
X0144783Y0181632D02*
X0139583Y0181632D01*
X0139583Y0171632D02*
X0144783Y0171632D01*
X0144783Y0161632D02*
X0139583Y0161632D01*
X0139583Y0151632D02*
X0144783Y0151632D01*
D11*
X0168050Y0161199D03*
X0167459Y0182577D03*
X0167813Y0206002D03*
X0207813Y0206002D03*
X0207459Y0182577D03*
X0208050Y0161199D03*
X0171554Y0084743D03*
X0146790Y0083443D03*
X0132774Y0084231D03*
X0115884Y0085294D03*
X0081435Y0083680D03*
X0115884Y0045294D03*
X0132774Y0044231D03*
X0146790Y0043443D03*
X0171554Y0044743D03*
X0081435Y0043680D03*
X0039231Y0043286D03*
X0039231Y0083286D03*
X0035806Y0169034D03*
X0035372Y0190136D03*
X0035569Y0211278D03*
X0075569Y0211278D03*
X0075372Y0190136D03*
X0075806Y0169034D03*
D12*
X0073128Y0115806D03*
X0083128Y0115806D03*
X0083128Y0105806D03*
X0073128Y0105806D03*
X0049388Y0105254D03*
X0039388Y0105254D03*
X0039388Y0115254D03*
X0049388Y0115254D03*
X0106396Y0115766D03*
X0106396Y0105766D03*
X0116396Y0105766D03*
X0116396Y0115766D03*
X0139585Y0115924D03*
X0149585Y0115924D03*
X0149585Y0105924D03*
X0139585Y0105924D03*
X0173758Y0105569D03*
X0173758Y0115569D03*
X0183758Y0115569D03*
X0183758Y0105569D03*
X0204900Y0105333D03*
X0204900Y0115333D03*
X0214900Y0115333D03*
X0214900Y0105333D03*
D13*
X0199900Y0070609D03*
X0199900Y0050924D03*
D14*
X0014900Y0014900D03*
X0015294Y0224152D03*
X0223443Y0224152D03*
X0223404Y0014900D03*
D15*
X0153365Y0152498D03*
X0159191Y0172144D03*
X0161357Y0192498D03*
X0094585Y0161239D03*
X0092420Y0181593D03*
X0092420Y0201239D03*
M02*
