%
M48
M72
T01C0.02400
T02C0.03200
T03C0.03937
T04C0.13500
%
T01
X39388Y105254
X49388Y105254
X49388Y115254
X39388Y115254
X73128Y115806
X83128Y115806
X83128Y105806
X73128Y105806
X106396Y105766
X116396Y105766
X116396Y115766
X106396Y115766
X139585Y115924
X149585Y115924
X149585Y105924
X139585Y105924
X173758Y105569
X173758Y115569
X183758Y115569
X183758Y105569
X204900Y105333
X204900Y115333
X214900Y115333
X214900Y105333
T02
X171554Y84743
X146790Y83443
X132774Y84231
X115884Y85294
X81435Y83680
X115884Y45294
X132774Y44231
X146790Y43443
X171554Y44743
X81435Y43680
X39231Y43286
X39231Y83286
X112183Y151632
X112183Y161632
X112183Y171632
X112183Y181632
X112183Y191632
X112183Y201632
X112183Y211632
X142183Y211632
X142183Y201632
X142183Y191632
X142183Y181632
X142183Y171632
X142183Y161632
X142183Y151632
X168050Y161199
X167459Y182577
X167813Y206002
X207813Y206002
X207459Y182577
X208050Y161199
X75806Y169034
X75372Y190136
X75569Y211278
X35569Y211278
X35372Y190136
X35806Y169034
T03
X92420Y181593
X92420Y201239
X94585Y161239
X153365Y152498
X159191Y172144
X161357Y192498
X199900Y70609
X199900Y50924
T04
X14900Y14900
X15294Y224152
X223443Y224152
X223404Y14900
M30
